<mxfile host="app.diagrams.net" agent="Mozilla/5.0 (Windows NT 10.0; Win64; x64) AppleWebKit/537.36 (KHTML, like Gecko) Chrome/131.0.0.0 Safari/537.36" version="25.0.3">
  <diagram name="Page-1" id="lC13w95F4_KmSe0lj3_E">
    <mxGraphModel dx="1195" dy="622" grid="1" gridSize="10" guides="1" tooltips="1" connect="1" arrows="1" fold="1" page="1" pageScale="1" pageWidth="850" pageHeight="1100" math="0" shadow="0">
      <root>
        <mxCell id="0" />
        <mxCell id="1" parent="0" />
        <mxCell id="SKCpEGsZ2utBiuXx1Nre-8" style="edgeStyle=orthogonalEdgeStyle;rounded=0;orthogonalLoop=1;jettySize=auto;html=1;entryX=0.5;entryY=0;entryDx=0;entryDy=0;" edge="1" parent="1" source="SKCpEGsZ2utBiuXx1Nre-1" target="SKCpEGsZ2utBiuXx1Nre-4">
          <mxGeometry relative="1" as="geometry" />
        </mxCell>
        <mxCell id="SKCpEGsZ2utBiuXx1Nre-1" value="&lt;font style=&quot;font-size: 24px;&quot;&gt;start&lt;/font&gt;" style="strokeWidth=2;html=1;shape=mxgraph.flowchart.start_1;whiteSpace=wrap;" vertex="1" parent="1">
          <mxGeometry x="360" y="60" width="100" height="60" as="geometry" />
        </mxCell>
        <mxCell id="SKCpEGsZ2utBiuXx1Nre-6" style="edgeStyle=orthogonalEdgeStyle;rounded=0;orthogonalLoop=1;jettySize=auto;html=1;entryX=0.5;entryY=0;entryDx=0;entryDy=0;" edge="1" parent="1" source="SKCpEGsZ2utBiuXx1Nre-2" target="SKCpEGsZ2utBiuXx1Nre-5">
          <mxGeometry relative="1" as="geometry" />
        </mxCell>
        <mxCell id="SKCpEGsZ2utBiuXx1Nre-2" value="for i = 1, i &amp;lt;= n, i++" style="rhombus;whiteSpace=wrap;html=1;" vertex="1" parent="1">
          <mxGeometry x="339" y="210" width="142" height="70" as="geometry" />
        </mxCell>
        <mxCell id="SKCpEGsZ2utBiuXx1Nre-3" value="&lt;font style=&quot;font-size: 24px;&quot;&gt;end&lt;/font&gt;" style="strokeWidth=2;html=1;shape=mxgraph.flowchart.start_1;whiteSpace=wrap;" vertex="1" parent="1">
          <mxGeometry x="360" y="470" width="100" height="60" as="geometry" />
        </mxCell>
        <mxCell id="SKCpEGsZ2utBiuXx1Nre-9" style="edgeStyle=orthogonalEdgeStyle;rounded=0;orthogonalLoop=1;jettySize=auto;html=1;entryX=0.5;entryY=0;entryDx=0;entryDy=0;" edge="1" parent="1" source="SKCpEGsZ2utBiuXx1Nre-4" target="SKCpEGsZ2utBiuXx1Nre-2">
          <mxGeometry relative="1" as="geometry" />
        </mxCell>
        <mxCell id="SKCpEGsZ2utBiuXx1Nre-4" value="input n" style="shape=parallelogram;perimeter=parallelogramPerimeter;whiteSpace=wrap;html=1;fixedSize=1;" vertex="1" parent="1">
          <mxGeometry x="339" y="150" width="142" height="30" as="geometry" />
        </mxCell>
        <mxCell id="SKCpEGsZ2utBiuXx1Nre-7" style="edgeStyle=orthogonalEdgeStyle;rounded=0;orthogonalLoop=1;jettySize=auto;html=1;entryX=1;entryY=1;entryDx=0;entryDy=0;" edge="1" parent="1" source="SKCpEGsZ2utBiuXx1Nre-5" target="SKCpEGsZ2utBiuXx1Nre-2">
          <mxGeometry relative="1" as="geometry" />
        </mxCell>
        <mxCell id="SKCpEGsZ2utBiuXx1Nre-13" style="edgeStyle=orthogonalEdgeStyle;rounded=0;orthogonalLoop=1;jettySize=auto;html=1;entryX=0.5;entryY=0;entryDx=0;entryDy=0;" edge="1" parent="1" source="SKCpEGsZ2utBiuXx1Nre-5" target="SKCpEGsZ2utBiuXx1Nre-11">
          <mxGeometry relative="1" as="geometry" />
        </mxCell>
        <mxCell id="SKCpEGsZ2utBiuXx1Nre-14" style="edgeStyle=orthogonalEdgeStyle;rounded=0;orthogonalLoop=1;jettySize=auto;html=1;entryX=0.5;entryY=0;entryDx=0;entryDy=0;" edge="1" parent="1" source="SKCpEGsZ2utBiuXx1Nre-5" target="SKCpEGsZ2utBiuXx1Nre-12">
          <mxGeometry relative="1" as="geometry" />
        </mxCell>
        <mxCell id="SKCpEGsZ2utBiuXx1Nre-5" value="if (i % 2 == 0)" style="rhombus;whiteSpace=wrap;html=1;" vertex="1" parent="1">
          <mxGeometry x="510" y="290" width="142" height="70" as="geometry" />
        </mxCell>
        <mxCell id="SKCpEGsZ2utBiuXx1Nre-10" style="edgeStyle=orthogonalEdgeStyle;rounded=0;orthogonalLoop=1;jettySize=auto;html=1;entryX=0.5;entryY=0;entryDx=0;entryDy=0;entryPerimeter=0;" edge="1" parent="1" source="SKCpEGsZ2utBiuXx1Nre-2" target="SKCpEGsZ2utBiuXx1Nre-3">
          <mxGeometry relative="1" as="geometry" />
        </mxCell>
        <mxCell id="SKCpEGsZ2utBiuXx1Nre-16" style="edgeStyle=orthogonalEdgeStyle;rounded=0;orthogonalLoop=1;jettySize=auto;html=1;entryX=1;entryY=1;entryDx=0;entryDy=0;" edge="1" parent="1" source="SKCpEGsZ2utBiuXx1Nre-11" target="SKCpEGsZ2utBiuXx1Nre-5">
          <mxGeometry relative="1" as="geometry" />
        </mxCell>
        <mxCell id="SKCpEGsZ2utBiuXx1Nre-11" value="output&lt;div&gt;i, &quot;Hello World&quot;&lt;/div&gt;" style="shape=parallelogram;perimeter=parallelogramPerimeter;whiteSpace=wrap;html=1;fixedSize=1;" vertex="1" parent="1">
          <mxGeometry x="690" y="370" width="120" height="40" as="geometry" />
        </mxCell>
        <mxCell id="SKCpEGsZ2utBiuXx1Nre-15" style="edgeStyle=orthogonalEdgeStyle;rounded=0;orthogonalLoop=1;jettySize=auto;html=1;entryX=0;entryY=1;entryDx=0;entryDy=0;" edge="1" parent="1" source="SKCpEGsZ2utBiuXx1Nre-12" target="SKCpEGsZ2utBiuXx1Nre-5">
          <mxGeometry relative="1" as="geometry" />
        </mxCell>
        <mxCell id="SKCpEGsZ2utBiuXx1Nre-12" value="output&lt;div&gt;i, &quot;Hello World&quot;&lt;/div&gt;" style="shape=parallelogram;perimeter=parallelogramPerimeter;whiteSpace=wrap;html=1;fixedSize=1;" vertex="1" parent="1">
          <mxGeometry x="521" y="420" width="120" height="40" as="geometry" />
        </mxCell>
      </root>
    </mxGraphModel>
  </diagram>
</mxfile>
